<?xml version="1.0" encoding="UTF-8" standalone="no"?>
<!-- Created with Inkscape (http://www.inkscape.org/) -->

<svg
   xmlns:dc="http://purl.org/dc/elements/1.1/"
   xmlns:cc="http://creativecommons.org/ns#"
   xmlns:rdf="http://www.w3.org/1999/02/22-rdf-syntax-ns#"
   xmlns:svg="http://www.w3.org/2000/svg"
   xmlns="http://www.w3.org/2000/svg"
   version="1.1"
   width="200"
   height="82.839432"
   id="svg120723">
  <defs
     id="defs120725" />
  <metadata
     id="metadata120728">
    <rdf:RDF>
      <cc:Work
         rdf:about="">
        <dc:format>image/svg+xml</dc:format>
        <dc:type
           rdf:resource="http://purl.org/dc/dcmitype/StillImage" />
        <dc:title></dc:title>
      </cc:Work>
    </rdf:RDF>
  </metadata>
  <g
     transform="translate(-348.82623,-552.39253)"
     id="layer1">
    <g
       transform="matrix(2.0696805,0,0,2.0696805,-373.13259,-679.4952)"
       id="g120784">
      <g
         transform="matrix(1.25,0,0,-1.25,388.96111,610.82169)"
         id="g120519">
        <path
           d="M 0,0 C 2.159,1.249 4.418,1.38 5.046,0.291 5.674,-0.794 4.433,-2.685 2.273,-3.929 0.115,-5.172 -2.146,-5.306 -2.774,-4.224 -3.402,-3.135 -2.161,-1.246 0,0"
           id="path120521"
           style="fill:#8cd9e8;fill-opacity:1;fill-rule:nonzero;stroke:none" />
      </g>
      <g
         transform="matrix(1.25,0,0,-1.25,376.71736,612.45681)"
         id="g120523">
        <path
           d="M 0,0 C 2.159,1.254 4.418,1.383 5.047,0.295 5.674,-0.788 4.432,-2.682 2.274,-3.929 0.113,-5.175 -2.144,-5.298 -2.774,-4.218 -3.399,-3.127 -2.161,-1.243 0,0"
           id="path120525"
           style="fill:#1ab4d7;fill-opacity:1;fill-rule:nonzero;stroke:none" />
      </g>
      <g
         transform="matrix(1.25,0,0,-1.25,365.64436,621.65431)"
         id="g120527">
        <path
           d="M 0,0 C 3.6,2.076 7.367,2.293 8.409,0.485 9.459,-1.328 7.389,-4.481 3.787,-6.557 0.188,-8.631 -3.575,-8.846 -4.622,-7.04 -5.667,-5.229 -3.6,-2.079 0,0"
           id="path120529"
           style="fill:#8cd9e8;fill-opacity:1;fill-rule:nonzero;stroke:none" />
      </g>
      <g
         transform="matrix(1.25,0,0,-1.25,354.94374,612.12481)"
         id="g120531">
        <path
           d="M 0,0 C 3.6,2.074 7.365,2.293 8.411,0.483 9.458,-1.328 7.387,-4.481 3.788,-6.557 0.188,-8.632 -3.576,-8.853 -4.623,-7.037 -5.668,-5.23 -3.599,-2.08 0,0"
           id="path120533"
           style="fill:#1ab4d7;fill-opacity:1;fill-rule:nonzero;stroke:none" />
      </g>
      <g
         transform="matrix(1.25,0,0,-1.25,394.89974,597.34756)"
         id="g120535">
        <path
           d="M 0,0 C 3.6,2.077 7.364,2.297 8.41,0.484 9.456,-1.326 7.387,-4.475 3.792,-6.557 0.189,-8.632 -3.58,-8.848 -4.621,-7.039 -5.668,-5.228 -3.599,-2.075 0,0"
           id="path120537"
           style="fill:#9c9a9b;fill-opacity:1;fill-rule:nonzero;stroke:none" />
      </g>
      <g
         transform="matrix(1.25,0,0,-1.25,366.60511,602.39769)"
         id="g120539">
        <path
           d="M 0,0 C 2.16,1.243 4.418,1.379 5.048,0.29 5.675,-0.795 4.434,-2.687 2.274,-3.932 0.116,-5.178 -2.144,-5.306 -2.771,-4.224 -3.402,-3.139 -2.158,-1.249 0,0"
           id="path120541"
           style="fill:#9c9a9b;fill-opacity:1;fill-rule:nonzero;stroke:none" />
      </g>
      <g
         transform="matrix(1.25,0,0,-1.25,382.28749,601.00731)"
         id="g120543">
        <path
           d="M 0,0 C 1.34,0.777 2.738,0.854 3.128,0.181 3.521,-0.488 2.749,-1.66 1.412,-2.43 0.073,-3.208 -1.326,-3.287 -1.717,-2.617 -2.104,-1.943 -1.337,-0.771 0,0"
           id="path120545"
           style="fill:#1ab4d7;fill-opacity:1;fill-rule:nonzero;stroke:none" />
      </g>
      <g
         transform="matrix(1.25,0,0,-1.25,371.66736,608.44681)"
         id="g120547">
        <path
           d="M 0,0 C 1.338,0.771 2.735,0.855 3.125,0.181 3.515,-0.49 2.744,-1.663 1.408,-2.436 0.07,-3.211 -1.33,-3.289 -1.718,-2.617 -2.109,-1.946 -1.34,-0.772 0,0"
           id="path120549"
           style="fill:#8cd9e8;fill-opacity:1;fill-rule:nonzero;stroke:none" />
      </g>
      <g
         transform="matrix(1.25,0,0,-1.25,353.88661,624.64006)"
         id="g120551">
        <path
           d="M 0,0 C 1.34,0.773 2.738,0.853 3.128,0.182 3.517,-0.495 2.75,-1.664 1.41,-2.435 0.072,-3.209 -1.33,-3.292 -1.72,-2.618 -2.109,-1.946 -1.337,-0.767 0,0"
           id="path120553"
           style="fill:#9c9a9b;fill-opacity:1;fill-rule:nonzero;stroke:none" />
      </g>
      <g
         transform="matrix(1.25,0,0,-1.25,426.62586,618.50794)"
         id="g120555">
        <path
           d="m 0,0 -12.733,-13.376 -4.156,0 2.359,13.375 L -10.192,0 -11.684,-8.48 -3.57,0 0,0 z"
           id="path120557"
           style="fill:#231f20;fill-opacity:1;fill-rule:evenodd;stroke:none" />
      </g>
      <g
         transform="matrix(1.25,0,0,-1.25,391.63924,618.50969)"
         id="g120559">
        <path
           d="m 0,0 4.34,0 -2.358,-13.377 -4.341,0 L 0,0 z"
           id="path120561"
           style="fill:#231f20;fill-opacity:1;fill-rule:evenodd;stroke:none" />
      </g>
      <g
         transform="matrix(1.25,0,0,-1.25,436.11199,625.03319)"
         id="g120563">
        <path
           d="m 0,0 5.719,0 -0.424,-2.416 -5.721,0 -0.594,-3.314 6.822,0 -0.432,-2.429 -11.133,0 2.337,13.378 10.904,0 -0.428,-2.43 -6.557,0 L 0,0 z"
           id="path120565"
           style="fill:#231f20;fill-opacity:1;fill-rule:evenodd;stroke:none" />
      </g>
    </g>
  </g>
</svg>
